<?xml version="1.0" encoding="UTF-8"?>
<svg version="1.1" xmlns="http://www.w3.org/2000/svg" width="512" height="512">
<path d="M0 0 C1.01790619 0.00215515 2.03581238 0.0043103 3.08456421 0.00653076 C17.69363523 0.05620146 32.02575853 0.30709809 46.375 3.3125 C47.34985352 3.51117676 48.32470703 3.70985352 49.32910156 3.91455078 C88.38660539 12.08468046 124.82400319 27.71035417 156.375 52.3125 C157.25929688 52.98539063 158.14359375 53.65828125 159.0546875 54.3515625 C174.64487101 66.4551235 189.25704477 80.75418497 201.375 96.3125 C202.52162109 97.71628906 202.52162109 97.71628906 203.69140625 99.1484375 C238.32002637 142.39252491 256.81365997 197.89189907 256.69067383 253.03979492 C256.6875221 255.97938487 256.71104926 258.9179558 256.73632812 261.85742188 C256.78098737 275.23056192 255.57551542 288.12666711 253.375 301.3125 C253.09281616 303.01805054 253.09281616 303.01805054 252.80493164 304.75805664 C245.77946967 343.86954746 228.79665906 381.05202178 204.375 412.3125 C203.61574219 413.28445313 202.85648437 414.25640625 202.07421875 415.2578125 C189.73986402 430.63741644 175.93895499 445.19015196 160.375 457.3125 C159.43914062 458.07691406 158.50328125 458.84132813 157.5390625 459.62890625 C125.58628299 485.2157721 86.41988322 501.72551276 46.375 509.3125 C45.56562988 509.47621094 44.75625977 509.63992188 43.92236328 509.80859375 C13.88110013 515.67977137 -20.7615176 514.58512909 -50.625 508.3125 C-52.14794678 507.99901611 -52.14794678 507.99901611 -53.70166016 507.67919922 C-90.84546555 499.78695344 -125.70945445 483.68345578 -155.625 460.3125 C-156.59695312 459.55324219 -157.56890625 458.79398437 -158.5703125 458.01171875 C-173.94991644 445.67736402 -188.50265196 431.87645499 -200.625 416.3125 C-201.77162109 414.90871094 -201.77162109 414.90871094 -202.94140625 413.4765625 C-228.5282721 381.52378299 -245.03801276 342.35738322 -252.625 302.3125 C-252.78871094 301.50312988 -252.95242187 300.69375977 -253.12109375 299.85986328 C-258.59069558 271.87335724 -258.46977511 238.21828161 -252.625 210.3125 C-252.42632324 209.33764648 -252.22764648 208.36279297 -252.02294922 207.35839844 C-241.7272891 158.1397446 -219.29081567 114.71000304 -184.625 78.3125 C-184.05475098 77.71356934 -183.48450195 77.11463867 -182.89697266 76.49755859 C-174.89671874 68.15723469 -166.68033043 60.51197864 -157.39306641 53.62744141 C-155.58557641 52.28318 -153.79826388 50.91490873 -152.01171875 49.54296875 C-143.60452986 43.15390681 -134.86138957 37.61168285 -125.65234375 32.45166016 C-123.78933792 31.40484113 -121.94116361 30.33571119 -120.09375 29.26171875 C-83.4933446 8.69459905 -41.63834482 -0.15855121 0 0 Z M-65.625 123.3125 C-66.4190625 123.93898438 -67.213125 124.56546875 -68.03125 125.2109375 C-87.01500651 141.053016 -99.09201845 166.54223022 -101.49609375 190.9921875 C-102.81308216 214.6979789 -97.77530621 235.85016424 -85.625 256.3125 C-85.02945313 256.94800781 -84.43390625 257.58351563 -83.8203125 258.23828125 C-80.64952104 263.74053702 -84.86700409 273.85570563 -86.32470703 279.66625977 C-86.59955933 280.77784454 -86.87441162 281.88942932 -87.15759277 283.03469849 C-87.7520964 285.43757293 -88.34856106 287.83996286 -88.94678116 290.24191475 C-89.89296596 294.04471389 -90.83205635 297.84919881 -91.76901245 301.65428162 C-94.43247754 312.46911836 -97.10396331 323.28193827 -99.79248047 334.09057617 C-101.43903479 340.71056515 -103.07207283 347.33378348 -104.69771957 353.95893669 C-105.31898287 356.48026396 -105.94498229 359.00042914 -106.57580948 361.51938057 C-107.45697159 365.03952144 -108.32225991 368.56321705 -109.18408203 372.08813477 C-109.44792694 373.12573441 -109.71177185 374.16333405 -109.98361206 375.2323761 C-111.29180013 380.6594832 -112.01673032 384.86073578 -110.625 390.3125 C-109.24260705 392.51676487 -109.24260705 392.51676487 -106.625 393.3125 C-97.39812038 392.87583697 -88.96396975 389.81488177 -80.22265625 387.01953125 C-79.06121094 386.65988281 -77.89976562 386.30023438 -76.703125 385.9296875 C-75.65543945 385.59565918 -74.60775391 385.26163086 -73.52832031 384.91748047 C-70.39330861 384.26422122 -68.64033859 384.27100343 -65.625 385.3125 C-63.79150391 386.76782227 -63.79150391 386.76782227 -62.1015625 388.62890625 C-61.4725 389.31146484 -60.8434375 389.99402344 -60.1953125 390.69726562 C-59.55335938 391.41591797 -58.91140625 392.13457031 -58.25 392.875 C-57.61578125 393.56658203 -56.9815625 394.25816406 -56.328125 394.97070312 C-52.53246115 399.12656773 -48.82314515 403.35540086 -45.14453125 407.61499023 C-42.39445822 410.68717176 -40.17806338 413.00946324 -36.0625 413.8125 C-32.76476449 413.13604143 -31.76529005 411.89284768 -29.625 409.3125 C-28.44865042 406.30040358 -28.44865042 406.30040358 -27.68652344 402.8347168 C-27.44477701 401.85775486 -27.44477701 401.85775486 -27.19814682 400.86105633 C-26.84719062 399.43541042 -26.50269448 398.00816242 -26.16386414 396.57958603 C-25.61295498 394.2618247 -25.04282657 391.94951646 -24.46789551 389.63760376 C-23.17298726 384.41535259 -21.90551761 379.18662119 -20.640625 373.95703125 C-20.17553787 372.03748573 -19.71042923 370.11794542 -19.24530029 368.19841003 C-18.27924101 364.20933229 -17.31472005 360.21988602 -16.35107422 356.23022461 C-15.11574085 351.11708642 -13.87451004 346.00539874 -12.6319313 340.89401722 C-11.67320717 336.94601473 -10.71856574 332.99703341 -9.76506805 329.04776573 C-9.30884613 327.1611387 -8.85111921 325.27487494 -8.39185333 323.38898659 C-7.75334797 320.76530724 -7.12059073 318.14030561 -6.48925781 315.51489258 C-6.29917648 314.7393251 -6.10909515 313.96375763 -5.91325378 313.16468811 C-5.09783838 309.74947097 -4.625 306.84771873 -4.625 303.3125 C-1.325 303.3125 1.975 303.3125 5.375 303.3125 C5.49888092 304.61720245 5.62276184 305.92190491 5.75039673 307.2661438 C6.27611418 311.9714143 7.22492336 316.46531855 8.36865234 321.05419922 C8.56880447 321.87665131 8.7689566 322.69910339 8.97517395 323.54647827 C9.63166475 326.23807641 10.29617196 328.92762222 10.9609375 331.6171875 C11.42359964 333.50600277 11.8858009 335.39493098 12.3475647 337.28396606 C13.31422956 341.23361583 14.28453094 345.1823467 15.2578125 349.13037109 C16.49882683 354.16450781 17.73371991 359.2001186 18.96623802 364.23634148 C20.14993533 369.07212333 21.3365086 373.90719799 22.5234375 378.7421875 C22.85796999 380.10616983 22.85796999 380.10616983 23.19926071 381.49770737 C24.40875104 386.42449514 25.62998808 391.3480479 26.86736298 396.26790619 C27.32669986 398.11796301 27.76554934 399.97307692 28.20196533 401.82867432 C28.56146271 403.29237457 28.56146271 403.29237457 28.92822266 404.78564453 C29.11647614 405.58358429 29.30472961 406.38152405 29.49868774 407.2036438 C30.63695405 409.94289563 32.09603285 411.43575979 34.375 413.3125 C38.58270264 413.72501987 40.30657999 413.1861461 43.58203125 410.5078125 C45.94259107 408.18344525 48.17445385 405.78860649 50.375 403.3125 C51.25478516 402.32830078 51.25478516 402.32830078 52.15234375 401.32421875 C54.75009814 398.37194729 57.29854993 395.40843981 59.75 392.33203125 C60.60359378 391.30421146 61.45775798 390.27686511 62.3125 389.25 C63.08464844 388.28964844 63.85679687 387.32929688 64.65234375 386.33984375 C67.375 384.3125 67.375 384.3125 70.84375 384.24609375 C78.22175423 385.70541258 85.40800385 388.29723058 92.55273438 390.60546875 C100.89679629 393.30307417 100.89679629 393.30307417 109.375 392.3125 C111.57926487 390.93010705 111.57926487 390.93010705 112.375 388.3125 C111.89433038 381.27050181 110.39010194 374.64589052 108.67529297 367.81347656 C108.40044067 366.69853317 108.12558838 365.58358978 107.84240723 364.43486023 C107.24846461 362.02804158 106.65198389 359.62184813 106.05321884 357.21622467 C105.10642067 353.40983944 104.16759664 349.60156791 103.23098755 345.79266357 C100.56837583 334.96837145 97.89174911 324.14756341 95.20751953 313.32861328 C93.56314972 306.70046765 91.92984244 300.06966236 90.30228043 293.4373703 C89.68025959 290.91178744 89.05424578 288.38718457 88.42419052 285.86359406 C87.54527123 282.34264194 86.67919169 278.81876072 85.81591797 275.29394531 C85.4201506 273.72911659 85.4201506 273.72911659 85.01638794 272.13267517 C84.78361145 271.17118057 84.55083496 270.20968597 84.31100464 269.21905518 C84.00184773 267.97142836 84.00184773 267.97142836 83.68644524 266.69859695 C83.14827299 262.57546064 84.14176532 259.2881349 86.265625 255.78125 C86.83192627 254.82279175 86.83192627 254.82279175 87.40966797 253.8449707 C87.81072754 253.17425537 88.21178711 252.50354004 88.625 251.8125 C102.31399157 228.13417116 105.65891579 201.80916737 99.375 175.3125 C95.14948833 160.42260173 88.14711822 147.26756959 78.375 135.3125 C77.74980469 134.52230469 77.12460937 133.73210937 76.48046875 132.91796875 C60.91785804 114.21007251 35.48343117 101.53884508 11.375 99.3125 C-17.86215217 97.45967406 -42.68892901 104.97624545 -65.625 123.3125 Z " fill="#338FCE" transform="translate(255.625,-0.3125)"/>
<path d="M0 0 C17.29124528 14.98253938 27.70920886 35.89341063 29.99609375 58.62109375 C31.46869405 81.6918318 25.17571119 104.26563484 10.17578125 122.15234375 C-6.09826631 140.58459834 -26.47456568 151.66278474 -51.31640625 153.43359375 C-73.49408086 154.58526079 -96.06504135 148.32110008 -112.98046875 133.52270508 C-115.40226536 131.29457457 -117.70592348 128.97755812 -120.00390625 126.62109375 C-120.74125 125.89277344 -121.47859375 125.16445313 -122.23828125 124.4140625 C-137.27173118 108.71051694 -144.60970163 86.10545823 -144.35522461 64.62182617 C-143.50633289 40.38256597 -133.5443585 18.35836428 -116.00390625 1.62109375 C-82.4475447 -27.7706409 -34.42861682 -27.26531553 0 0 Z M-64.00390625 7.62109375 C-65.23783938 10.21735745 -66.32557215 12.73955126 -67.3515625 15.4140625 C-67.64953232 16.16069656 -67.94750214 16.90733063 -68.25450134 17.67658997 C-69.52401031 20.85794611 -70.76948543 24.0485406 -72.01586914 27.23901367 C-72.93124554 29.57188467 -73.85967654 31.89924519 -74.7890625 34.2265625 C-75.06726334 34.95256149 -75.34546417 35.67856049 -75.63209534 36.42655945 C-76.33917452 38.19382428 -77.16270819 39.9135892 -78.00390625 41.62109375 C-81.72598011 42.86178504 -85.33059891 42.97572223 -89.21484375 43.19921875 C-90.86856761 43.30872374 -92.52221172 43.41943875 -94.17578125 43.53125 C-96.77789956 43.7045609 -99.37959258 43.87113222 -101.98339844 44.01708984 C-104.4999274 44.16071427 -107.01304354 44.33370131 -109.52734375 44.51171875 C-110.30145599 44.54839661 -111.07556824 44.58507446 -111.87313843 44.62286377 C-115.97438451 44.93973996 -117.67166923 45.3627647 -121.02636719 47.97119141 C-123.33536281 50.53913279 -123.33536281 50.53913279 -123.12109375 54.12890625 C-121.80704592 58.23645436 -120.4074804 59.73763335 -117.12890625 62.49609375 C-116.13632813 63.34429687 -115.14375 64.1925 -114.12109375 65.06640625 C-113.08359046 65.91986773 -112.04453897 66.77145082 -111.00390625 67.62109375 C-110.03710938 68.42289062 -109.0703125 69.2246875 -108.07421875 70.05078125 C-103.00972611 74.27044171 -103.00972611 74.27044171 -97.72265625 78.19921875 C-95.81001875 79.58056806 -94.42477813 80.74293617 -93.00390625 82.62109375 C-93.24063534 91.39828015 -95.94240266 99.89229581 -98.14355469 108.34814453 C-98.64001595 110.26490426 -99.12291935 112.18515947 -99.60546875 114.10546875 C-99.89760254 115.23694336 -100.18973633 116.36841797 -100.49072266 117.53417969 C-101.20183771 121.81169576 -100.82546292 124.42035708 -98.37890625 127.99609375 C-96.03352501 129.95494677 -96.03352501 129.95494677 -92.74267578 129.44091797 C-88.76780966 128.56932332 -86.23434128 127.29683393 -82.80859375 125.12890625 C-82.25325958 124.7822995 -81.69792542 124.43569275 -81.12576294 124.07858276 C-79.36946755 122.97894051 -77.62421507 121.86307206 -75.87890625 120.74609375 C-74.70122637 120.00408735 -73.52284581 119.26319182 -72.34375 118.5234375 C-70.17368108 117.16062459 -68.00902719 115.79046593 -65.84716797 114.41455078 C-64.43975342 113.52678955 -64.43975342 113.52678955 -63.00390625 112.62109375 C-62.15973145 112.00733887 -61.31555664 111.39358398 -60.44580078 110.76123047 C-58.00390625 109.62109375 -58.00390625 109.62109375 -55.47338867 110.27050781 C-53.12008211 111.55755595 -50.78525431 112.83857596 -48.4921875 114.23046875 C-47.65107422 114.73835938 -46.80996094 115.24625 -45.94335938 115.76953125 C-45.07646484 116.29804688 -44.20957031 116.8265625 -43.31640625 117.37109375 C-42.46884766 117.88414062 -41.62128906 118.3971875 -40.74804688 118.92578125 C-39.90048828 119.43882812 -39.05292969 119.951875 -38.1796875 120.48046875 C-37.32971191 120.99287109 -36.47973633 121.50527344 -35.60400391 122.03320312 C-33.82593693 123.11907614 -32.06038127 124.22563283 -30.30615234 125.34960938 C-29.00218506 126.17235352 -29.00218506 126.17235352 -27.671875 127.01171875 C-26.89481201 127.51219727 -26.11774902 128.01267578 -25.31713867 128.52832031 C-22.63964294 129.79317212 -20.93190257 129.95586102 -18.00390625 129.62109375 C-15.52041357 127.75847424 -14.2619944 126.40835544 -13.29125977 123.44726562 C-12.91676778 119.76407171 -13.72175023 116.61898628 -14.65625 113.08984375 C-14.83523331 112.37630737 -15.01421661 111.662771 -15.19862366 110.9276123 C-15.76961838 108.65611688 -16.35444071 106.38851009 -16.94140625 104.12109375 C-17.52316248 101.85332846 -18.10175459 99.58489161 -18.67347717 97.3145752 C-19.02893667 95.90503183 -19.39033985 94.49696998 -19.75852966 93.09069824 C-20.65897979 89.54073418 -21.38361195 86.28579149 -21.00390625 82.62109375 C-19.203125 80.48046875 -19.203125 80.48046875 -16.69140625 78.37109375 C-15.78003906 77.59507812 -14.86867188 76.8190625 -13.9296875 76.01953125 C-12.48142578 74.83230469 -12.48142578 74.83230469 -11.00390625 73.62109375 C-10.06933594 72.85023438 -9.13476562 72.079375 -8.171875 71.28515625 C-0.60460069 65.0831664 -0.60460069 65.0831664 2.43359375 62.74609375 C5.95587407 59.92826949 7.74412552 58.31700601 9.30859375 53.99609375 C9.28515217 50.52347544 9.28515217 50.52347544 7.00634766 47.97949219 C3.10257676 44.92106341 0.35116709 44.74064427 -4.48046875 44.51171875 C-5.28753265 44.45457703 -6.09459656 44.3974353 -6.92611694 44.33856201 C-9.49282052 44.16104697 -12.06012451 44.01508808 -14.62890625 43.87109375 C-17.20401822 43.70618273 -19.77861189 43.53486212 -22.3531189 43.36077881 C-23.95198782 43.25490616 -25.55130708 43.15558453 -27.15103149 43.0635376 C-30.30360464 42.87271162 -32.99208872 42.62503293 -36.00390625 41.62109375 C-37.21625983 39.16019975 -38.24040703 36.77966773 -39.21875 34.2265625 C-39.66426964 33.11091667 -39.66426964 33.11091667 -40.11878967 31.97273254 C-41.07031356 29.58874767 -42.00738524 27.1994858 -42.94140625 24.80859375 C-44.16785015 21.67223385 -45.40801783 18.5418043 -46.65625 15.4140625 C-47.07051491 14.33417305 -47.07051491 14.33417305 -47.4931488 13.23246765 C-49.08313091 9.24920422 -50.59211872 6.28425013 -54.00390625 3.62109375 C-59.04226807 2.78136678 -60.83426611 3.77090534 -64.00390625 7.62109375 Z " fill="#2E99D5" transform="translate(313.00390625,134.37890625)"/>
<path d="M0 0 C3.02126192 3.02126192 3.38006399 6.86847391 4.33837891 10.91601562 C4.56300308 11.8396843 4.78762726 12.76335297 5.01905823 13.7150116 C5.76182823 16.77712691 6.49430194 19.84160599 7.2265625 22.90625 C7.73881111 25.02865866 8.25162557 27.15093083 8.76498413 29.27307129 C9.84018911 33.72414391 10.91069969 38.17630955 11.97753906 42.62939453 C13.34759053 48.3478304 14.72582923 54.06425082 16.10714149 59.77997589 C17.42072379 65.21719269 18.72996574 70.65545187 20.0390625 76.09375 C20.29070789 77.13731155 20.54235329 78.18087311 20.8016243 79.25605774 C21.51030263 82.19812641 22.215863 85.14092405 22.92041016 88.08398438 C23.2382975 89.40096565 23.2382975 89.40096565 23.56260681 90.74455261 C25 96.7705632 25 96.7705632 25 99 C18.58980702 98.37758171 13.04789663 96.87244773 7 94.72851562 C2.13043082 93.09740017 -1.85639282 92.41561884 -7 93 C-9.82853391 94.82885513 -9.82853391 94.82885513 -12.0625 97.5 C-12.90039062 98.40878906 -13.73828125 99.31757813 -14.6015625 100.25390625 C-15.39304687 101.16011719 -16.18453125 102.06632812 -17 103 C-17.68835938 103.77214844 -18.37671875 104.54429687 -19.0859375 105.33984375 C-20.24468466 106.65260161 -21.39354895 107.97422591 -22.52734375 109.30859375 C-23.96424735 110.95893661 -25.36539029 112.54354939 -27 114 C-27.66 114 -28.32 114 -29 114 C-31.76353885 102.69314044 -34.51958992 91.38448511 -37.26599216 80.07345009 C-38.54137845 74.8218174 -39.81937377 69.57084798 -41.10327148 64.32128906 C-42.34130215 59.25885879 -43.57255778 54.19482547 -44.7990551 49.12958908 C-45.2691044 47.19362626 -45.74162693 45.25826226 -46.21661568 43.3235054 C-46.87948865 40.6216549 -47.53367905 37.91784356 -48.18579102 35.21337891 C-48.3857518 34.40705521 -48.58571259 33.60073151 -48.79173279 32.76997375 C-50.11405216 27.22810432 -50.11405216 27.22810432 -49 25 C-46.48363181 24.22062066 -43.98567155 23.53270899 -41.4375 22.875 C-25.45369585 18.44144958 -12.86370705 10.32752324 0 0 Z " fill="#3882C5" transform="translate(325,275)"/>
<path d="M0 0 C1.03125 0.804375 2.0625 1.60875 3.125 2.4375 C16.04439079 12.08702728 28.79856812 19.13152348 44.42700195 23.30175781 C46.30048129 23.81307533 48.15287394 24.40042036 50 25 C51.66342072 28.32684145 50.04642291 31.74295899 49.18579102 35.21337891 C48.98111206 36.0622316 48.77643311 36.91108429 48.56555176 37.78565979 C47.88496375 40.60094704 47.19447083 43.4137073 46.50390625 46.2265625 C46.03104234 48.17411766 45.55879545 50.12182274 45.08714294 52.06967163 C43.84222333 57.20370659 42.58890288 62.3356553 41.3338623 67.46722412 C40.05541641 72.70088096 38.78487046 77.93645409 37.51367188 83.171875 C35.01687251 93.449815 32.51120012 103.72556978 30 114 C23.833926 111.04047511 19.7560695 105.91402292 15.3125 100.8125 C14.43851563 99.81669922 14.43851563 99.81669922 13.546875 98.80078125 C12.34463877 97.40120826 11.19271987 95.95834822 10.0625 94.5 C6.91685065 92.21225502 3.72125418 92.61979918 0 93 C-3.48369545 93.80400942 -6.85571886 94.88200235 -10.25 96 C-12.00360076 96.56749179 -13.75876274 97.1301872 -15.515625 97.6875 C-16.28165039 97.93886719 -17.04767578 98.19023437 -17.83691406 98.44921875 C-20 99 -20 99 -24 99 C-21.29366578 86.64432677 -18.44725119 74.32871213 -15.48828125 62.03125 C-15.07034618 60.29058315 -14.65247538 58.54990087 -14.23466492 56.8092041 C-13.36933029 53.20571894 -12.50281584 49.60252004 -11.63549805 45.99951172 C-10.52314258 41.37787341 -9.41449478 36.75535414 -8.30675983 32.13260651 C-7.44974659 28.55840494 -6.59049426 24.98474455 -5.73058128 21.41123962 C-5.32033557 19.70493546 -4.91086731 17.99844417 -4.50219154 16.29176331 C-3.93518654 13.92506099 -3.36509789 11.55912263 -2.79418945 9.19335938 C-2.62640488 8.49012039 -2.4586203 7.78688141 -2.28575134 7.06233215 C-1.11419897 2.22839795 -1.11419897 2.22839795 0 0 Z " fill="#3882C5" transform="translate(186,275)"/>
<path d="M0 0 C0.66 0 1.32 0 2 0 C2.25168945 0.65073486 2.50337891 1.30146973 2.76269531 1.97192383 C3.91258409 4.92384959 5.08102767 7.86808222 6.25 10.8125 C6.64574219 11.83666016 7.04148437 12.86082031 7.44921875 13.91601562 C8.03896484 15.39038086 8.03896484 15.39038086 8.640625 16.89453125 C9.17478027 18.25348511 9.17478027 18.25348511 9.71972656 19.63989258 C11.18913418 22.34865754 12.31612618 23.50017054 15 25 C17.5661027 25.55663078 17.5661027 25.55663078 20.3515625 25.66015625 C21.36734375 25.73169922 22.383125 25.80324219 23.4296875 25.87695312 C24.48414063 25.93818359 25.53859375 25.99941406 26.625 26.0625 C28.72187339 26.19100984 30.81828686 26.32733847 32.9140625 26.47265625 C33.8417041 26.52687744 34.7693457 26.58109863 35.72509766 26.63696289 C38 27 38 27 40 29 C39.56655273 29.37286133 39.13310547 29.74572266 38.68652344 30.12988281 C36.70626896 31.83495495 34.72812123 33.54245358 32.75 35.25 C31.72712891 36.12978516 31.72712891 36.12978516 30.68359375 37.02734375 C29.36114934 38.17003843 28.04515574 39.32024941 26.73632812 40.47851562 C25.36076915 41.68387045 23.94466816 42.84293801 22.515625 43.984375 C20.20571123 47.05632217 20.62330478 49.22916431 21 53 C21.71852999 56.69443451 22.69532489 60.3126728 23.66601562 63.94726562 C24.62131245 67.70476647 25.15587764 70.29471 24 74 C23.42556152 73.63648438 22.85112305 73.27296875 22.25927734 72.8984375 C19.63968868 71.25162778 17.00770121 69.62575707 14.375 68 C13.01955078 67.14148438 13.01955078 67.14148438 11.63671875 66.265625 C8.13503455 64.11860695 4.99879431 62.24969858 1 61.25 C-3.99340952 62.49835238 -8.05727987 65.26523861 -12.375 68 C-13.76525391 68.85851562 -13.76525391 68.85851562 -15.18359375 69.734375 C-17.46337688 71.14455013 -19.73480992 72.56654451 -22 74 C-23.3773982 69.58460204 -22.22376577 66.0356699 -21.0625 61.6875 C-18.96271349 53.95185317 -18.96271349 53.95185317 -19 46 C-21.02613284 43.30494471 -21.02613284 43.30494471 -24 41 C-25.18437293 39.96312893 -26.36792342 38.92531791 -27.55078125 37.88671875 C-28.80287156 36.81818095 -30.05680615 35.75180076 -31.3125 34.6875 C-31.95767578 34.13771484 -32.60285156 33.58792969 -33.26757812 33.02148438 C-34.84343442 31.67908827 -36.42149121 30.33927606 -38 29 C-35.47980077 26.47980077 -34.41211557 26.67711949 -30.9140625 26.47265625 C-29.90085938 26.40240234 -28.88765625 26.33214844 -27.84375 26.25976562 C-25.70593571 26.12874667 -23.56791091 26.00111647 -21.4296875 25.87695312 C-20.41390625 25.80541016 -19.398125 25.73386719 -18.3515625 25.66015625 C-17.42166504 25.60480713 -16.49176758 25.54945801 -15.53369141 25.49243164 C-12.5305914 24.90876882 -11.17996651 24.13769407 -9 22 C-7.64900522 19.62422554 -7.64900522 19.62422554 -6.640625 16.89453125 C-6.24746094 15.91162109 -5.85429687 14.92871094 -5.44921875 13.91601562 C-5.05347656 12.89185547 -4.65773437 11.86769531 -4.25 10.8125 C-3.63318359 9.25885742 -3.63318359 9.25885742 -3.00390625 7.67382812 C-1.991763 5.11993178 -0.9909866 2.5621635 0 0 Z " fill="#2E98D4" transform="translate(255,166)"/>
</svg>
